# 128 vertices, 252 faces
v -5.000000 5.000000 15.000000
vn 0.566373 0.567205 0.597913
v -5.000000 0.000000 15.000000
vn 0.650227 -0.325591 0.686436
v -4.970690 5.000000 14.459405
vn 0.828330 0.555201 0.074969
v -4.970690 0.000000 14.459405
vn 0.825081 -0.555201 0.104850
v -4.883103 5.000000 13.925148
vn 0.815369 0.555201 0.164087
v -4.883103 0.000000 13.925148
vn 0.808908 -0.555201 0.193443
v -4.738266 5.000000 13.403492
vn 0.792849 0.555201 0.251283
v -4.738266 0.000000 13.403492
vn 0.783251 -0.555201 0.279767
v -4.537877 5.000000 12.900555
vn 0.761032 0.555201 0.335532
v -4.537877 0.000000 12.900555
vn 0.748411 -0.555201 0.362811
v -4.284286 5.000000 12.422231
vn 0.720294 0.555201 0.415847
v -4.284286 0.000000 12.422231
vn 0.704797 -0.555201 0.441602
v -3.980465 5.000000 11.974129
vn 0.671111 0.555201 0.491286
v -3.980465 0.000000 11.974129
vn 0.652920 -0.555201 0.515215
v -3.629977 5.000000 11.561502
vn 0.614059 0.555201 0.560967
v -3.629977 0.000000 11.561502
vn 0.593388 -0.555201 0.582789
v -3.236931 5.000000 11.189190
vn 0.467130 0.707568 0.530224
v -3.236931 0.000000 11.189190
vn 0.447666 -0.707568 0.546757
v -2.805935 5.000000 10.861555
vn 0.479112 0.555201 0.679856
v -2.805935 0.000000 10.861555
vn 0.454233 -0.555201 0.696724
v -2.342042 5.000000 10.582439
vn 0.402797 0.555201 0.727672
v -2.342042 0.000000 10.582439
vn 0.376240 -0.555201 0.741751
v -1.850691 5.000000 10.355117
vn 0.321761 0.555201 0.766956
v -1.850691 0.000000 10.355117
vn 0.293838 -0.555201 0.778082
v -1.337642 5.000000 10.182250
vn 0.236953 0.555201 0.797248
v -1.337642 0.000000 10.182250
vn 0.207990 -0.555201 0.805290
v -0.808910 5.000000 10.065867
vn 0.149366 0.555201 0.818194
v -0.808910 0.000000 10.065867
vn 0.119704 -0.555201 0.823057
v -0.270695 5.000000 10.007333
vn 0.051001 0.707568 0.704803
v -0.270695 0.000000 10.007333
vn 0.025501 -0.707568 0.706185
v 0.270695 5.000000 10.007333
vn -0.030014 0.555201 0.831174
v 0.270695 0.000000 10.007333
vn -0.060028 -0.555201 0.829547
v 0.808910 5.000000 10.065867
vn -0.119704 0.555201 0.823057
v 0.808910 0.000000 10.065867
vn -0.149366 -0.555201 0.818194
v 1.337642 5.000000 10.182250
vn -0.176713 0.707568 0.684193
v 1.337642 0.000000 10.182250
vn -0.201321 -0.707568 0.677361
v 1.850691 5.000000 10.355117
vn -0.293838 0.555201 0.778082
v 1.850691 0.000000 10.355117
vn -0.321761 -0.555201 0.766956
v 2.342042 5.000000 10.582439
vn -0.376240 0.555201 0.741751
v 2.342042 0.000000 10.582439
vn -0.402797 -0.555201 0.727672
v 2.805935 5.000000 10.861555
vn -0.454233 0.555201 0.696724
v 2.805935 0.000000 10.861555
vn -0.479112 -0.555201 0.679856
v 3.236931 5.000000 11.189190
vn -0.526899 0.555201 0.643529
v 3.236931 0.000000 11.189190
vn -0.549808 -0.555201 0.624070
v 3.629977 5.000000 11.561502
vn -0.593388 0.555201 0.582789
v 3.629977 0.000000 11.561502
vn -0.614059 -0.555201 0.560967
v 3.980465 5.000000 11.974129
vn -0.652920 0.555201 0.515215
v 3.980465 0.000000 11.974129
vn -0.671111 -0.555201 0.491286
v 4.284286 5.000000 12.422231
vn -0.598812 0.707568 0.375195
v 4.284286 0.000000 12.422231
vn -0.611979 -0.707568 0.353313
v 4.537877 5.000000 12.900555
vn -0.748411 0.555201 0.362811
v 4.537877 0.000000 12.900555
vn -0.761032 -0.555201 0.335532
v 4.738266 5.000000 13.403492
vn -0.783251 0.555201 0.279767
v 4.738266 0.000000 13.403492
vn -0.792849 -0.555201 0.251283
v 4.883103 5.000000 13.925148
vn -0.808908 0.555201 0.193443
v 4.883103 0.000000 13.925148
vn -0.815369 -0.555201 0.164087
v 4.970690 5.000000 14.459405
vn -0.825081 0.555201 0.104850
v 4.970690 0.000000 14.459405
vn -0.828330 -0.555201 0.074969
v 5.000000 5.000000 15.000000
vn -0.650227 0.325591 0.686436
v 5.000000 0.000000 15.000000
vn -0.566373 -0.567205 0.597913
v -15.000000 5.000000 15.000000
vn -0.107833 0.970495 0.215666
v -15.000000 5.000000 -15.000000
vn -0.215666 0.970495 -0.107833
v 15.000000 5.000000 -5.000000
vn 0.278974 0.950675 -0.135612
v 15.000000 5.000000 -15.000000
vn 0.408248 0.408248 -0.816497
v 15.000000 5.000000 5.000000
vn 0.029897 0.998100 0.053872
v 15.000000 5.000000 15.000000
vn 0.312348 0.937043 0.156174
v 15.540595 5.000000 4.970690
vn 0.119580 0.316599 0.940992
v 16.074852 5.000000 4.883103
vn 0.193443 0.555201 0.808908
v 16.596508 5.000000 4.738266
vn 0.279767 0.555201 0.783251
v 17.099445 5.000000 4.537877
vn 0.362811 0.555201 0.748412
v 17.577770 5.000000 4.284286
vn 0.441602 0.555201 0.704797
v 18.025871 5.000000 3.980465
vn 0.515216 0.555201 0.652920
v 18.438498 5.000000 3.629977
vn 0.582789 0.555201 0.593388
v 18.810810 5.000000 3.236931
vn 0.643529 0.555201 0.526899
v 19.138445 5.000000 2.805935
vn 0.696724 0.555201 0.454233
v 19.417561 5.000000 2.342042
vn 0.741751 0.555201 0.376241
v 19.644884 5.000000 1.850691
vn 0.778082 0.555201 0.293837
v 19.817749 5.000000 1.337642
vn 0.805290 0.555201 0.207991
v 19.934134 5.000000 0.808910
vn 0.823057 0.555201 0.119703
v 19.992666 5.000000 0.270695
vn 0.831174 0.555201 0.030013
v 19.992666 5.000000 -0.270695
vn 0.829547 0.555201 -0.060026
v 19.934134 5.000000 -0.808910
vn 0.818194 0.555201 -0.149367
v 19.817749 5.000000 -1.337642
vn 0.797249 0.555201 -0.236952
v 19.644884 5.000000 -1.850691
vn 0.766956 0.555201 -0.321761
v 19.417561 5.000000 -2.342042
vn 0.727671 0.555201 -0.402798
v 19.138445 5.000000 -2.805935
vn 0.679856 0.555201 -0.479112
v 18.810810 5.000000 -3.236931
vn 0.624070 0.555201 -0.549808
v 18.438498 5.000000 -3.629977
vn 0.560967 0.555201 -0.614059
v 18.025871 5.000000 -3.980465
vn 0.491287 0.555201 -0.671110
v 17.577770 5.000000 -4.284286
vn 0.415846 0.555201 -0.720294
v 17.099445 5.000000 -4.537877
vn 0.335532 0.555201 -0.761032
v 16.596508 5.000000 -4.738266
vn 0.251283 0.555201 -0.792849
v 16.074852 5.000000 -4.883103
vn 0.164087 0.555201 -0.815369
v 15.540595 5.000000 -4.970690
vn 0.074969 0.555201 -0.828330
v 15.000000 0.000000 15.000000
vn 0.156174 -0.937043 0.312348
v 15.000000 0.000000 -5.000000
vn 0.052466 -0.994138 -0.094541
v 15.540595 0.000000 -4.970690
vn 0.119580 -0.316599 -0.940992
v 16.074852 0.000000 -4.883103
vn 0.193443 -0.555201 -0.808908
v 16.596508 0.000000 -4.738266
vn 0.279767 -0.555201 -0.783251
v 17.099445 0.000000 -4.537877
vn 0.362811 -0.555201 -0.748412
v 17.577770 0.000000 -4.284286
vn 0.441602 -0.555201 -0.704797
v 18.025871 0.000000 -3.980465
vn 0.515216 -0.555201 -0.652920
v 18.438498 0.000000 -3.629977
vn 0.582789 -0.555201 -0.593388
v 18.810810 0.000000 -3.236931
vn 0.643529 -0.555201 -0.526899
v 19.138445 0.000000 -2.805935
vn 0.696724 -0.555201 -0.454233
v 19.417561 0.000000 -2.342042
vn 0.741751 -0.555201 -0.376241
v 19.644884 0.000000 -1.850691
vn 0.778082 -0.555201 -0.293837
v 19.817749 0.000000 -1.337642
vn 0.805290 -0.555201 -0.207991
v 19.934134 0.000000 -0.808910
vn 0.823057 -0.555201 -0.119703
v 19.992666 0.000000 -0.270695
vn 0.831174 -0.555201 -0.030013
v 19.992666 0.000000 0.270695
vn 0.704803 -0.707568 0.051000
v 19.934134 0.000000 0.808910
vn 0.818194 -0.555201 0.149367
v 19.817749 0.000000 1.337642
vn 0.797249 -0.555201 0.236952
v 19.644884 0.000000 1.850691
vn 0.766956 -0.555201 0.321761
v 19.417561 0.000000 2.342042
vn 0.727671 -0.555201 0.402798
v 19.138445 0.000000 2.805935
vn 0.679856 -0.555201 0.479112
v 18.810810 0.000000 3.236931
vn 0.624070 -0.555201 0.549808
v 18.438498 0.000000 3.629977
vn 0.560967 -0.555201 0.614059
v 18.025871 0.000000 3.980465
vn 0.491287 -0.555201 0.671110
v 17.577770 0.000000 4.284286
vn 0.415846 -0.555201 0.720294
v 17.099445 0.000000 4.537877
vn 0.335532 -0.555201 0.761032
v 16.596508 0.000000 4.738266
vn 0.251283 -0.555201 0.792849
v 16.074852 0.000000 4.883103
vn 0.164087 -0.555201 0.815369
v 15.540595 0.000000 4.970690
vn 0.085501 -0.316599 0.944698
v 15.000000 0.000000 5.000000
vn 0.088873 -0.995106 0.043202
v -15.000000 0.000000 -15.000000
vn -0.107833 -0.970495 -0.215666
v 15.000000 0.000000 -15.000000
vn 0.816497 -0.408248 -0.408248
v -15.000000 0.000000 15.000000
vn -0.215666 -0.970495 0.107833
f 1//1 2//2 3//3
f 3//3 2//2 4//4
f 3//3 4//4 5//5
f 5//5 4//4 6//6
f 5//5 6//6 7//7
f 7//7 6//6 8//8
f 7//7 8//8 9//9
f 9//9 8//8 10//10
f 9//9 10//10 11//11
f 11//11 10//10 12//12
f 11//11 12//12 13//13
f 13//13 12//12 14//14
f 13//13 14//14 15//15
f 15//15 14//14 16//16
f 15//15 16//16 17//17
f 17//17 16//16 18//18
f 17//17 18//18 19//19
f 19//19 18//18 20//20
f 19//19 20//20 21//21
f 21//21 20//20 22//22
f 21//21 22//22 23//23
f 23//23 22//22 24//24
f 23//23 24//24 25//25
f 25//25 24//24 26//26
f 25//25 26//26 27//27
f 27//27 26//26 28//28
f 27//27 28//28 29//29
f 29//29 28//28 30//30
f 29//29 30//30 31//31
f 31//31 30//30 32//32
f 31//31 32//32 33//33
f 33//33 32//32 34//34
f 33//33 34//34 35//35
f 35//35 34//34 36//36
f 35//35 36//36 37//37
f 37//37 36//36 38//38
f 37//37 38//38 39//39
f 39//39 38//38 40//40
f 39//39 40//40 41//41
f 41//41 40//40 42//42
f 41//41 42//42 43//43
f 43//43 42//42 44//44
f 43//43 44//44 45//45
f 45//45 44//44 46//46
f 45//45 46//46 47//47
f 47//47 46//46 48//48
f 47//47 48//48 49//49
f 49//49 48//48 50//50
f 49//49 50//50 51//51
f 51//51 50//50 52//52
f 51//51 52//52 53//53
f 53//53 52//52 54//54
f 53//53 54//54 55//55
f 55//55 54//54 56//56
f 55//55 56//56 57//57
f 57//57 56//56 58//58
f 57//57 58//58 59//59
f 59//59 58//58 60//60
f 1//1 3//3 61//61
f 61//61 3//3 5//5
f 61//61 5//5 7//7
f 7//7 9//9 61//61
f 61//61 9//9 11//11
f 61//61 11//11 13//13
f 13//13 15//15 61//61
f 61//61 15//15 17//17
f 61//61 17//17 62//62
f 62//62 17//17 19//19
f 62//62 19//19 21//21
f 21//21 23//23 62//62
f 62//62 23//23 25//25
f 62//62 25//25 27//27
f 27//27 29//29 62//62
f 62//62 29//29 63//63
f 62//62 63//63 64//64
f 29//29 31//31 63//63
f 63//63 31//31 33//33
f 63//63 33//33 35//35
f 63//63 35//35 65//65
f 65//65 35//35 37//37
f 65//65 37//37 39//39
f 39//39 41//41 65//65
f 65//65 41//41 43//43
f 65//65 43//43 45//45
f 45//45 47//47 65//65
f 65//65 47//47 49//49
f 65//65 49//49 66//66
f 66//66 49//49 51//51
f 66//66 51//51 53//53
f 53//53 55//55 66//66
f 66//66 55//55 57//57
f 66//66 57//57 59//59
f 67//67 68//68 65//65
f 65//65 68//68 69//69
f 65//65 69//69 70//70
f 70//70 71//71 65//65
f 65//65 71//71 72//72
f 65//65 72//72 73//73
f 73//73 74//74 65//65
f 65//65 74//74 75//75
f 65//65 75//75 76//76
f 76//76 77//77 65//65
f 65//65 77//77 78//78
f 65//65 78//78 79//79
f 79//79 80//80 65//65
f 65//65 80//80 81//81
f 65//65 81//81 82//82
f 82//82 83//83 65//65
f 65//65 83//83 84//84
f 65//65 84//84 85//85
f 85//85 86//86 65//65
f 65//65 86//86 87//87
f 65//65 87//87 88//88
f 88//88 89//89 65//65
f 65//65 89//89 90//90
f 65//65 90//90 91//91
f 91//91 92//92 65//65
f 65//65 92//92 93//93
f 65//65 93//93 94//94
f 94//94 63//63 65//65
f 60//60 95//95 59//59
f 59//59 95//95 66//66
f 63//63 94//94 96//96
f 96//96 94//94 97//97
f 97//97 94//94 93//93
f 97//97 93//93 98//98
f 98//98 93//93 92//92
f 98//98 92//92 99//99
f 99//99 92//92 91//91
f 99//99 91//91 100//100
f 100//100 91//91 90//90
f 100//100 90//90 101//101
f 101//101 90//90 89//89
f 101//101 89//89 102//102
f 102//102 89//89 88//88
f 102//102 88//88 103//103
f 103//103 88//88 87//87
f 103//103 87//87 104//104
f 104//104 87//87 86//86
f 104//104 86//86 105//105
f 105//105 86//86 85//85
f 105//105 85//85 106//106
f 106//106 85//85 84//84
f 106//106 84//84 107//107
f 107//107 84//84 83//83
f 107//107 83//83 108//108
f 108//108 83//83 82//82
f 108//108 82//82 109//109
f 109//109 82//82 81//81
f 109//109 81//81 110//110
f 110//110 81//81 80//80
f 110//110 80//80 111//111
f 111//111 80//80 79//79
f 111//111 79//79 112//112
f 112//112 79//79 78//78
f 112//112 78//78 113//113
f 113//113 78//78 77//77
f 113//113 77//77 114//114
f 114//114 77//77 76//76
f 114//114 76//76 115//115
f 115//115 76//76 75//75
f 115//115 75//75 116//116
f 116//116 75//75 74//74
f 116//116 74//74 117//117
f 117//117 74//74 73//73
f 117//117 73//73 118//118
f 118//118 73//73 72//72
f 118//118 72//72 119//119
f 119//119 72//72 71//71
f 119//119 71//71 120//120
f 120//120 71//71 70//70
f 120//120 70//70 121//121
f 121//121 70//70 69//69
f 121//121 69//69 122//122
f 122//122 69//69 68//68
f 122//122 68//68 123//123
f 123//123 68//68 67//67
f 123//123 67//67 124//124
f 124//124 67//67 65//65
f 124//124 65//65 125//125
f 60//60 58//58 95//95
f 95//95 58//58 56//56
f 95//95 56//56 54//54
f 54//54 52//52 95//95
f 95//95 52//52 50//50
f 95//95 50//50 125//125
f 125//125 50//50 48//48
f 125//125 48//48 46//46
f 46//46 44//44 125//125
f 125//125 44//44 42//42
f 125//125 42//42 40//40
f 40//40 38//38 125//125
f 125//125 38//38 36//36
f 125//125 36//36 96//96
f 96//96 36//36 34//34
f 96//96 34//34 32//32
f 32//32 30//30 96//96
f 96//96 30//30 126//126
f 96//96 126//126 127//127
f 30//30 28//28 126//126
f 126//126 28//28 26//26
f 126//126 26//26 24//24
f 24//24 22//22 126//126
f 126//126 22//22 20//20
f 126//126 20//20 18//18
f 126//126 18//18 128//128
f 128//128 18//18 16//16
f 128//128 16//16 14//14
f 14//14 12//12 128//128
f 128//128 12//12 10//10
f 128//128 10//10 8//8
f 8//8 6//6 128//128
f 128//128 6//6 4//4
f 128//128 4//4 2//2
f 97//97 98//98 96//96
f 96//96 98//98 99//99
f 96//96 99//99 100//100
f 100//100 101//101 96//96
f 96//96 101//101 102//102
f 96//96 102//102 103//103
f 103//103 104//104 96//96
f 96//96 104//104 105//105
f 96//96 105//105 106//106
f 106//106 107//107 96//96
f 96//96 107//107 108//108
f 96//96 108//108 109//109
f 109//109 110//110 96//96
f 96//96 110//110 111//111
f 96//96 111//111 125//125
f 125//125 111//111 112//112
f 125//125 112//112 113//113
f 113//113 114//114 125//125
f 125//125 114//114 115//115
f 125//125 115//115 116//116
f 116//116 117//117 125//125
f 125//125 117//117 118//118
f 125//125 118//118 119//119
f 119//119 120//120 125//125
f 125//125 120//120 121//121
f 125//125 121//121 122//122
f 122//122 123//123 125//125
f 125//125 123//123 124//124
f 65//65 66//66 125//125
f 125//125 66//66 95//95
f 96//96 127//127 63//63
f 63//63 127//127 64//64
f 1//1 61//61 2//2
f 2//2 61//61 128//128
f 126//126 128//128 62//62
f 62//62 128//128 61//61
f 127//127 126//126 64//64
f 64//64 126//126 62//62
