# 16 vertices, 28 faces
v 30.000000 7.000000 -30.000000
vn -0.534522 0.801784 0.267261
v -31.000000 7.000000 -31.000000
vn -0.534522 0.801784 -0.267261
v -30.000000 7.000000 -30.000000
vn 0.267261 0.801784 0.534522
v -31.000000 7.000000 31.000000
vn -0.218218 0.872872 0.436436
v -30.000000 7.000000 30.000000
vn 0.666667 0.666667 -0.333333
v 30.000000 7.000000 30.000000
vn -0.218218 0.872872 -0.436436
v 31.000000 7.000000 31.000000
vn 0.666667 0.666667 0.333333
v 31.000000 7.000000 -31.000000
vn 0.267261 0.801784 -0.534522
v -30.000000 2.000000 -30.000000
vn 0.816497 0.408248 0.408248
v -30.000000 2.000000 30.000000
vn 0.333333 0.666667 -0.666667
v 30.000000 2.000000 -30.000000
vn -0.333333 0.666667 0.666667
v 30.000000 2.000000 30.000000
vn -0.816497 0.408248 -0.408248
v -31.000000 0.000000 -31.000000
vn -0.408248 -0.408248 -0.816497
v -31.000000 0.000000 31.000000
vn -0.666667 -0.666667 0.333333
v 31.000000 0.000000 -31.000000
vn 0.666667 -0.666667 -0.333333
v 31.000000 0.000000 31.000000
vn 0.408248 -0.408248 0.816497
f 1//1 2//2 3//3
f 3//3 2//2 4//4
f 3//3 4//4 5//5
f 5//5 4//4 6//6
f 6//6 4//4 7//7
f 6//6 7//7 8//8
f 2//2 1//1 8//8
f 8//8 1//1 6//6
f 9//9 10//10 11//11
f 11//11 10//10 12//12
f 12//12 10//10 6//6
f 6//6 10//10 5//5
f 10//10 9//9 5//5
f 5//5 9//9 3//3
f 11//11 12//12 1//1
f 1//1 12//12 6//6
f 9//9 11//11 3//3
f 3//3 11//11 1//1
f 13//13 14//14 2//2
f 2//2 14//14 4//4
f 15//15 13//13 8//8
f 8//8 13//13 2//2
f 16//16 15//15 7//7
f 7//7 15//15 8//8
f 14//14 16//16 4//4
f 4//4 16//16 7//7
f 16//16 14//14 15//15
f 15//15 14//14 13//13
